<svg version="1.1" xmlns="http://www.w3.org/2000/svg" viewBox="0 0 1104.1971535694963 928.5293951744595" width="1104.1971535694963" height="928.5293951744595">
  <!-- svg-source:excalidraw -->
  
  <defs>
    <style class="style-fonts">
      @font-face {
        font-family: "Virgil";
        src: url("https://excalidraw.com/Virgil.woff2");
      }
      @font-face {
        font-family: "Cascadia";
        src: url("https://excalidraw.com/Cascadia.woff2");
      }
      @font-face {
        font-family: "Assistant";
        src: url("https://excalidraw.com/Assistant-Regular.woff2");
      }
    </style>
    <clipPath id="n9P_Fk3BXEJVUfAzu0v6N">
            <rect transform="translate(0 0) rotate(0 552.0985767847482 464.26469758722976)" width="1104.1971535694963" height="928.5293951744595">
          </rect>
        </clipPath>
  </defs>
  <rect x="0" y="0" width="1104.1971535694963" height="928.5293951744595" fill="#ffffff"></rect><g stroke-linecap="round" transform="translate(-161.17603395419928 -141.38246700083005) rotate(0 722.4644387341228 562.7022078766795)"><path d="M0 0 L1444.93 0 L1444.93 1125.4 L0 1125.4" stroke="none" stroke-width="0" fill="#d9c9ba"></path><path d="M0 0 C471.58 0, 943.16 0, 1444.93 0 M0 0 C574.4 0, 1148.79 0, 1444.93 0 M1444.93 0 C1444.93 226.57, 1444.93 453.14, 1444.93 1125.4 M1444.93 0 C1444.93 281.84, 1444.93 563.69, 1444.93 1125.4 M1444.93 1125.4 C1102.48 1125.4, 760.02 1125.4, 0 1125.4 M1444.93 1125.4 C1071.17 1125.4, 697.41 1125.4, 0 1125.4 M0 1125.4 C0 705.49, 0 285.58, 0 0 M0 1125.4 C0 862.26, 0 599.11, 0 0" stroke="#1e1e1e" stroke-width="1" fill="none"></path></g><g clip-path="url(#n9P_Fk3BXEJVUfAzu0v6N)"><g stroke-linecap="round" transform="translate(17.82901666224018 21.887018264478456) rotate(0 532.6856500648767 441.5951540291735)"><path d="M0 0 L1065.37 0 L1065.37 883.19 L0 883.19" stroke="none" stroke-width="0" fill="#1e1e1e"></path><path d="M0 0 C267.19 0, 534.38 0, 1065.37 0 M0 0 C387.94 0, 775.88 0, 1065.37 0 M1065.37 0 C1065.37 327.96, 1065.37 655.91, 1065.37 883.19 M1065.37 0 C1065.37 329.15, 1065.37 658.3, 1065.37 883.19 M1065.37 883.19 C747.65 883.19, 429.93 883.19, 0 883.19 M1065.37 883.19 C805.01 883.19, 544.65 883.19, 0 883.19 M0 883.19 C0 643.59, 0 403.98, 0 0 M0 883.19 C0 561.55, 0 239.9, 0 0" stroke="#1e1e1e" stroke-width="1" fill="none"></path></g></g><g clip-path="url(#n9P_Fk3BXEJVUfAzu0v6N)"><g stroke-linecap="round" transform="translate(51.52925945223183 287.03880239301907) rotate(0 229.38211903083015 148.8105920096907)"><path d="M0 0 C136.2 0, 272.41 0, 458.76 0 M458.76 0 C458.76 105.33, 458.76 210.65, 458.76 297.62 M458.76 297.62 C344.22 297.62, 229.68 297.62, 0 297.62 M0 297.62 C0 212.26, 0 126.9, 0 0" stroke="#ffffff" stroke-width="2.5" fill="none" stroke-dasharray="8 10"></path></g></g><g clip-path="url(#n9P_Fk3BXEJVUfAzu0v6N)"><g stroke-linecap="round" transform="translate(69.54970470479566 311.19331565491257) rotate(0 27.275089850016343 124.14585612151541)"><path d="M0 0 L54.55 0 L54.55 248.29 L0 248.29" stroke="none" stroke-width="0" fill="#ffffff"></path><path d="M0 0 C13.73 0, 27.47 0, 54.55 0 M0 0 C21.49 0, 42.97 0, 54.55 0 M54.55 0 C54.55 77.91, 54.55 155.83, 54.55 248.29 M54.55 0 C54.55 59.3, 54.55 118.6, 54.55 248.29 M54.55 248.29 C41.92 248.29, 29.28 248.29, 0 248.29 M54.55 248.29 C33.86 248.29, 13.16 248.29, 0 248.29 M0 248.29 C0 193.2, 0 138.12, 0 0 M0 248.29 C0 175.72, 0 103.15, 0 0" stroke="#1e1e1e" stroke-width="2" fill="none"></path></g></g><g clip-path="url(#n9P_Fk3BXEJVUfAzu0v6N)"><g transform="translate(79.934169554812 426.13917177642793) rotate(0 16.890625 9.200000000000045)"><text x="16.890625" y="0" font-family="Helvetica, Segoe UI Emoji" font-size="16px" fill="#1e1e1e" text-anchor="middle" style="white-space: pre;" direction="ltr" dominant-baseline="text-before-edge">User</text></g></g><g clip-path="url(#n9P_Fk3BXEJVUfAzu0v6N)"><g stroke-linecap="round" transform="translate(185.08758031904813 310.6336003718159) rotate(0 42.92556452513992 124.14585612151541)"><path d="M0 0 L85.85 0 L85.85 248.29 L0 248.29" stroke="none" stroke-width="0" fill="#ffffff"></path><path d="M0 0 C26.17 0, 52.34 0, 85.85 0 M0 0 C25.96 0, 51.91 0, 85.85 0 M85.85 0 C85.85 56.82, 85.85 113.64, 85.85 248.29 M85.85 0 C85.85 70.69, 85.85 141.38, 85.85 248.29 M85.85 248.29 C56.9 248.29, 27.95 248.29, 0 248.29 M85.85 248.29 C52.52 248.29, 19.2 248.29, 0 248.29 M0 248.29 C0 168.39, 0 88.5, 0 0 M0 248.29 C0 167.19, 0 86.09, 0 0" stroke="#1e1e1e" stroke-width="2" fill="none"></path></g></g><g clip-path="url(#n9P_Fk3BXEJVUfAzu0v6N)"><g transform="translate(193.33345734418805 425.57945649333124) rotate(0 34.6796875 9.200000000000045)"><text x="34.6796875" y="0" font-family="Helvetica, Segoe UI Emoji" font-size="16px" fill="#1e1e1e" text-anchor="middle" style="white-space: pre;" direction="ltr" dominant-baseline="text-before-edge">Controller</text></g></g><g clip-path="url(#n9P_Fk3BXEJVUfAzu0v6N)"><g stroke-linecap="round" transform="translate(282.61811831918556 311.31880508710924) rotate(0 60.09057890070028 124.14585612151541)"><path d="M0 0 L120.18 0 L120.18 248.29 L0 248.29" stroke="none" stroke-width="0" fill="#ffffff"></path><path d="M0 0 C36.34 0, 72.67 0, 120.18 0 M0 0 C27.5 0, 55.01 0, 120.18 0 M120.18 0 C120.18 70.69, 120.18 141.38, 120.18 248.29 M120.18 0 C120.18 83.73, 120.18 167.45, 120.18 248.29 M120.18 248.29 C73.53 248.29, 26.88 248.29, 0 248.29 M120.18 248.29 C81.51 248.29, 42.84 248.29, 0 248.29 M0 248.29 C0 167.19, 0 86.09, 0 0 M0 248.29 C0 159.12, 0 69.95, 0 0" stroke="#1e1e1e" stroke-width="2" fill="none"></path></g></g><g clip-path="url(#n9P_Fk3BXEJVUfAzu0v6N)"><g transform="translate(292.61104096988583 407.86466120862474) rotate(0 50.09765625 27.600000000000023)"><text x="50.09765625" y="0" font-family="Helvetica, Segoe UI Emoji" font-size="16px" fill="#1e1e1e" text-anchor="middle" style="white-space: pre;" direction="ltr" dominant-baseline="text-before-edge">Doldrums</text><text x="50.09765625" y="18.4" font-family="Helvetica, Segoe UI Emoji" font-size="16px" fill="#1e1e1e" text-anchor="middle" style="white-space: pre;" direction="ltr" dominant-baseline="text-before-edge"></text><text x="50.09765625" y="36.8" font-family="Helvetica, Segoe UI Emoji" font-size="16px" fill="#1e1e1e" text-anchor="middle" style="white-space: pre;" direction="ltr" dominant-baseline="text-before-edge">Vault Contract</text></g></g><g clip-path="url(#n9P_Fk3BXEJVUfAzu0v6N)"><g stroke-linecap="round" transform="translate(414.5673631423589 310.41486292147124) rotate(0 42.42060240635544 124.14585612151541)"><path d="M0 0 L84.84 0 L84.84 248.29 L0 248.29" stroke="none" stroke-width="0" fill="#ffffff"></path><path d="M0 0 C33.89 0, 67.79 0, 84.84 0 M0 0 C21.07 0, 42.14 0, 84.84 0 M84.84 0 C84.84 59.7, 84.84 119.4, 84.84 248.29 M84.84 0 C84.84 57.09, 84.84 114.18, 84.84 248.29 M84.84 248.29 C65.48 248.29, 46.12 248.29, 0 248.29 M84.84 248.29 C66.59 248.29, 48.34 248.29, 0 248.29 M0 248.29 C0 162.39, 0 76.49, 0 0 M0 248.29 C0 157.95, 0 67.61, 0 0" stroke="#1e1e1e" stroke-width="2" fill="none"></path></g></g><g clip-path="url(#n9P_Fk3BXEJVUfAzu0v6N)"><g transform="translate(420.5270280487143 406.96071904298674) rotate(0 36.4609375 27.600000000000023)"><text x="36.4609375" y="0" font-family="Helvetica, Segoe UI Emoji" font-size="16px" fill="#1e1e1e" text-anchor="middle" style="white-space: pre;" direction="ltr" dominant-baseline="text-before-edge">LayerZero</text><text x="36.4609375" y="18.4" font-family="Helvetica, Segoe UI Emoji" font-size="16px" fill="#1e1e1e" text-anchor="middle" style="white-space: pre;" direction="ltr" dominant-baseline="text-before-edge"></text><text x="36.4609375" y="36.8" font-family="Helvetica, Segoe UI Emoji" font-size="16px" fill="#1e1e1e" text-anchor="middle" style="white-space: pre;" direction="ltr" dominant-baseline="text-before-edge">Endpoint</text></g></g><g clip-path="url(#n9P_Fk3BXEJVUfAzu0v6N)"><g stroke-linecap="round"><g transform="translate(124.09469128991566 344.0308471913406) rotate(0 29.996444514566264 -0.04181082593197516)"><path d="M0 0 C16.82 -0.02, 33.63 -0.05, 59.99 -0.08 M0 0 C21.48 -0.03, 42.97 -0.06, 59.99 -0.08" stroke="#ffffff" stroke-width="2" fill="none"></path></g><g transform="translate(124.09469128991566 344.0308471913406) rotate(0 29.996444514566264 -0.04181082593197516)"><path d="M59.99 -0.08 L46.41 6.27 L46.39 -6.4 L59.99 -0.08" stroke="none" stroke-width="0" fill="#ffffff" fill-rule="evenodd"></path><path d="M59.99 -0.08 C56.18 1.7, 52.38 3.48, 46.41 6.27 M59.99 -0.08 C55.13 2.19, 50.26 4.47, 46.41 6.27 M46.41 6.27 C46.4 3.56, 46.4 0.85, 46.39 -6.4 M46.41 6.27 C46.4 3.39, 46.4 0.51, 46.39 -6.4 M46.39 -6.4 C50.54 -4.48, 54.69 -2.55, 59.99 -0.08 M46.39 -6.4 C49.13 -5.13, 51.87 -3.86, 59.99 -0.08 M59.99 -0.08 C59.99 -0.08, 59.99 -0.08, 59.99 -0.08 M59.99 -0.08 C59.99 -0.08, 59.99 -0.08, 59.99 -0.08" stroke="#ffffff" stroke-width="2" fill="none"></path></g></g><mask></mask></g><g clip-path="url(#n9P_Fk3BXEJVUfAzu0v6N)"><g stroke-linecap="round"><g transform="translate(183.856554111893 526.9845602879241) rotate(0 -29.378334853532323 0.1933548322247134)"><path d="M0 0 C-21.19 0.14, -42.37 0.28, -58.76 0.39 M0 0 C-19.57 0.13, -39.15 0.26, -58.76 0.39" stroke="#ffffff" stroke-width="2" fill="none"></path></g><g transform="translate(183.856554111893 526.9845602879241) rotate(0 -29.378334853532323 0.1933548322247134)"><path d="M-58.76 0.39 L-45.2 -6.04 L-45.12 6.64 L-58.76 0.39" stroke="none" stroke-width="0" fill="#ffffff" fill-rule="evenodd"></path><path d="M-58.76 0.39 C-53.87 -1.93, -48.98 -4.25, -45.2 -6.04 M-58.76 0.39 C-54.24 -1.75, -49.73 -3.9, -45.2 -6.04 M-45.2 -6.04 C-45.19 -3.22, -45.17 -0.39, -45.12 6.64 M-45.2 -6.04 C-45.19 -3.46, -45.17 -0.89, -45.12 6.64 M-45.12 6.64 C-49.98 4.41, -54.85 2.18, -58.76 0.39 M-45.12 6.64 C-48.68 5.01, -52.24 3.37, -58.76 0.39 M-58.76 0.39 C-58.76 0.39, -58.76 0.39, -58.76 0.39 M-58.76 0.39 C-58.76 0.39, -58.76 0.39, -58.76 0.39" stroke="#ffffff" stroke-width="2" fill="none"></path></g></g><mask></mask></g><g clip-path="url(#n9P_Fk3BXEJVUfAzu0v6N)"><g transform="translate(210.8826665977375 248.00283418817435) rotate(0 58.740234375 11.5)"><text x="0" y="0" font-family="Helvetica, Segoe UI Emoji" font-size="20px" fill="#ffffff" text-anchor="start" style="white-space: pre;" direction="ltr" dominant-baseline="text-before-edge">Viction Chain</text></g></g><g clip-path="url(#n9P_Fk3BXEJVUfAzu0v6N)"><g stroke-linecap="round" transform="translate(710.9422497551286 286.2147666285389) rotate(0 177.9145119098947 148.8105920096907)"><path d="M0 0 C97.06 0, 194.12 0, 355.83 0 M355.83 0 C355.83 96.36, 355.83 192.73, 355.83 297.62 M355.83 297.62 C254.9 297.62, 153.97 297.62, 0 297.62 M0 297.62 C0 223.14, 0 148.65, 0 0" stroke="#ffffff" stroke-width="2.5" fill="none" stroke-dasharray="8 10"></path></g></g><g clip-path="url(#n9P_Fk3BXEJVUfAzu0v6N)"><g stroke-linecap="round" transform="translate(722.0274807658216 310.36927989043284) rotate(0 44.430926572106955 126.26290120659144)"><path d="M0 0 L88.86 0 L88.86 252.53 L0 252.53" stroke="none" stroke-width="0" fill="#ffffff"></path><path d="M0 0 C24.02 0, 48.04 0, 88.86 0 M0 0 C31.94 0, 63.88 0, 88.86 0 M88.86 0 C88.86 98.94, 88.86 197.87, 88.86 252.53 M88.86 0 C88.86 68.81, 88.86 137.62, 88.86 252.53 M88.86 252.53 C69.02 252.53, 49.18 252.53, 0 252.53 M88.86 252.53 C65.93 252.53, 42.99 252.53, 0 252.53 M0 252.53 C0 197.21, 0 141.89, 0 0 M0 252.53 C0 162.74, 0 72.96, 0 0" stroke="#1e1e1e" stroke-width="2" fill="none"></path></g></g><g clip-path="url(#n9P_Fk3BXEJVUfAzu0v6N)"><g transform="translate(729.9974698379285 409.03218109702425) rotate(0 36.4609375 27.600000000000023)"><text x="36.4609375" y="0" font-family="Helvetica, Segoe UI Emoji" font-size="16px" fill="#1e1e1e" text-anchor="middle" style="white-space: pre;" direction="ltr" dominant-baseline="text-before-edge">LayerZero</text><text x="36.4609375" y="18.4" font-family="Helvetica, Segoe UI Emoji" font-size="16px" fill="#1e1e1e" text-anchor="middle" style="white-space: pre;" direction="ltr" dominant-baseline="text-before-edge"></text><text x="36.4609375" y="36.8" font-family="Helvetica, Segoe UI Emoji" font-size="16px" fill="#1e1e1e" text-anchor="middle" style="white-space: pre;" direction="ltr" dominant-baseline="text-before-edge">Endpoint</text></g></g><g clip-path="url(#n9P_Fk3BXEJVUfAzu0v6N)"><g stroke-linecap="round" transform="translate(903.0958943802116 310.4947693226293) rotate(0 75.34018999707803 124.14585612151541)"><path d="M0 0 L150.68 0 L150.68 248.29 L0 248.29" stroke="none" stroke-width="0" fill="#ffffff"></path><path d="M0 0 C31.33 0, 62.65 0, 150.68 0 M0 0 C54.58 0, 109.16 0, 150.68 0 M150.68 0 C150.68 76.51, 150.68 153.03, 150.68 248.29 M150.68 0 C150.68 97.73, 150.68 195.46, 150.68 248.29 M150.68 248.29 C102.6 248.29, 54.52 248.29, 0 248.29 M150.68 248.29 C118.27 248.29, 85.87 248.29, 0 248.29 M0 248.29 C0 169.35, 0 90.4, 0 0 M0 248.29 C0 155.41, 0 62.52, 0 0" stroke="#1e1e1e" stroke-width="2" fill="none"></path></g></g><g clip-path="url(#n9P_Fk3BXEJVUfAzu0v6N)"><g transform="translate(926.4204593772897 425.44062544414464) rotate(0 52.015625 9.200000000000045)"><text x="52.015625" y="0" font-family="Helvetica, Segoe UI Emoji" font-size="16px" fill="#1e1e1e" text-anchor="middle" style="white-space: pre;" direction="ltr" dominant-baseline="text-before-edge">Derivative Dex</text></g></g><g clip-path="url(#n9P_Fk3BXEJVUfAzu0v6N)"><g stroke-linecap="round"><g transform="translate(812.812666635795 344.21648357819595) rotate(0 43.87634487213961 -0.5155423563596742)"><path d="M0 0 C25.6 -0.3, 51.2 -0.6, 87.75 -1.03 M0 0 C26.34 -0.31, 52.67 -0.62, 87.75 -1.03" stroke="#ffffff" stroke-width="2" fill="none"></path></g><g transform="translate(812.812666635795 344.21648357819595) rotate(0 43.87634487213961 -0.5155423563596742)"><path d="M87.75 -1.03 L74.23 5.47 L74.08 -7.21 L87.75 -1.03" stroke="none" stroke-width="0" fill="#ffffff" fill-rule="evenodd"></path><path d="M87.75 -1.03 C83.81 0.86, 79.86 2.76, 74.23 5.47 M87.75 -1.03 C83.7 0.92, 79.64 2.87, 74.23 5.47 M74.23 5.47 C74.19 2.13, 74.16 -1.21, 74.08 -7.21 M74.23 5.47 C74.19 2.1, 74.15 -1.28, 74.08 -7.21 M74.08 -7.21 C79.43 -4.79, 84.78 -2.37, 87.75 -1.03 M74.08 -7.21 C79.13 -4.93, 84.17 -2.65, 87.75 -1.03 M87.75 -1.03 C87.75 -1.03, 87.75 -1.03, 87.75 -1.03 M87.75 -1.03 C87.75 -1.03, 87.75 -1.03, 87.75 -1.03" stroke="#ffffff" stroke-width="2" fill="none"></path></g></g><mask></mask></g><g clip-path="url(#n9P_Fk3BXEJVUfAzu0v6N)"><g stroke-linecap="round"><g transform="translate(900.334330172919 528.9694181940326) rotate(0 -44.22249813144174 0.5775944542151592)"><path d="M0 0 C-27.51 0.36, -55.01 0.72, -88.44 1.16 M0 0 C-26.33 0.34, -52.66 0.69, -88.44 1.16" stroke="#ffffff" stroke-width="2" fill="none"></path></g><g transform="translate(900.334330172919 528.9694181940326) rotate(0 -44.22249813144174 0.5775944542151592)"><path d="M-88.44 1.16 L-74.93 -5.36 L-74.77 7.32 L-88.44 1.16" stroke="none" stroke-width="0" fill="#ffffff" fill-rule="evenodd"></path><path d="M-88.44 1.16 C-84.24 -0.87, -80.04 -2.9, -74.93 -5.36 M-88.44 1.16 C-84.42 -0.78, -80.4 -2.72, -74.93 -5.36 M-74.93 -5.36 C-74.87 -0.6, -74.81 4.16, -74.77 7.32 M-74.93 -5.36 C-74.89 -1.99, -74.85 1.39, -74.77 7.32 M-74.77 7.32 C-78.08 5.83, -81.38 4.34, -88.44 1.16 M-74.77 7.32 C-78.52 5.63, -82.28 3.93, -88.44 1.16 M-88.44 1.16 C-88.44 1.16, -88.44 1.16, -88.44 1.16 M-88.44 1.16 C-88.44 1.16, -88.44 1.16, -88.44 1.16" stroke="#ffffff" stroke-width="2" fill="none"></path></g></g><mask></mask></g><g clip-path="url(#n9P_Fk3BXEJVUfAzu0v6N)"><g transform="translate(798.3604426587635 247.17879842369416) rotate(0 78.935546875 11.5)"><text x="0" y="0" font-family="Helvetica, Segoe UI Emoji" font-size="20px" fill="#ffffff" text-anchor="start" style="white-space: pre;" direction="ltr" dominant-baseline="text-before-edge">Destination Chain</text></g></g><g clip-path="url(#n9P_Fk3BXEJVUfAzu0v6N)"><g stroke-linecap="round"><g transform="translate(502.1410221187971 430.47437918311243) rotate(0 109.1758642729659 -0.02898412287879637)"><path d="M0 0 C59.91 -0.02, 119.82 -0.03, 218.35 -0.06 M0 0 C65.34 -0.02, 130.67 -0.03, 218.35 -0.06" stroke="#ffffff" stroke-width="2" fill="none"></path></g><g transform="translate(502.1410221187971 430.47437918311243) rotate(0 109.1758642729659 -0.02898412287879637)"><path d="M218.35 -0.06 L204.76 6.28 L204.76 -6.39 L218.35 -0.06" stroke="none" stroke-width="0" fill="#ffffff" fill-rule="evenodd"></path><path d="M218.35 -0.06 C214.62 1.68, 210.89 3.42, 204.76 6.28 M218.35 -0.06 C214.28 1.84, 210.22 3.74, 204.76 6.28 M204.76 6.28 C204.76 3.32, 204.76 0.36, 204.76 -6.39 M204.76 6.28 C204.76 2.93, 204.76 -0.42, 204.76 -6.39 M204.76 -6.39 C207.54 -5.1, 210.32 -3.8, 218.35 -0.06 M204.76 -6.39 C209.73 -4.08, 214.7 -1.76, 218.35 -0.06 M218.35 -0.06 C218.35 -0.06, 218.35 -0.06, 218.35 -0.06 M218.35 -0.06 C218.35 -0.06, 218.35 -0.06, 218.35 -0.06" stroke="#ffffff" stroke-width="2" fill="none"></path></g></g><mask></mask></g><g clip-path="url(#n9P_Fk3BXEJVUfAzu0v6N)"><g stroke-linecap="round" transform="translate(545.5313913803543 371.28543618813546) rotate(0 61.586382236342956 62.986050898740245)"><path d="M123.17 62.99 C123.17 65.52, 123.02 68.07, 122.72 70.58 C122.43 73.09, 121.98 75.6, 121.38 78.06 C120.79 80.52, 120.05 82.95, 119.17 85.32 C118.29 87.69, 117.27 90.02, 116.12 92.26 C114.97 94.5, 113.68 96.68, 112.27 98.77 C110.87 100.85, 109.33 102.86, 107.68 104.75 C106.04 106.65, 104.28 108.45, 102.43 110.13 C100.57 111.81, 98.61 113.38, 96.57 114.82 C94.53 116.26, 92.4 117.58, 90.21 118.76 C88.02 119.93, 85.74 120.98, 83.43 121.88 C81.11 122.78, 78.73 123.54, 76.32 124.14 C73.92 124.75, 71.47 125.21, 69.01 125.51 C66.55 125.82, 64.06 125.97, 61.59 125.97 C59.11 125.97, 56.62 125.82, 54.16 125.51 C51.71 125.21, 49.25 124.75, 46.85 124.14 C44.45 123.54, 42.06 122.78, 39.75 121.88 C37.43 120.98, 35.16 119.93, 32.97 118.76 C30.77 117.58, 28.64 116.26, 26.6 114.82 C24.56 113.38, 22.6 111.81, 20.75 110.13 C18.89 108.45, 17.13 106.65, 15.49 104.75 C13.85 102.86, 12.31 100.85, 10.9 98.77 C9.5 96.68, 8.2 94.5, 7.05 92.26 C5.9 90.02, 4.88 87.69, 4 85.32 C3.12 82.95, 2.38 80.52, 1.79 78.06 C1.2 75.6, 0.75 73.09, 0.45 70.58 C0.15 68.07, 0 65.52, 0 62.99 C0 60.46, 0.15 57.91, 0.45 55.39 C0.75 52.88, 1.2 50.37, 1.79 47.91 C2.38 45.46, 3.12 43.02, 4 40.65 C4.88 38.28, 5.9 35.96, 7.05 33.71 C8.2 31.47, 9.5 29.29, 10.9 27.21 C12.31 25.12, 13.85 23.11, 15.49 21.22 C17.13 19.32, 18.89 17.52, 20.75 15.84 C22.6 14.16, 24.56 12.59, 26.6 11.15 C28.64 9.71, 30.77 8.39, 32.97 7.21 C35.16 6.04, 37.43 4.99, 39.75 4.09 C42.06 3.2, 44.45 2.44, 46.85 1.83 C49.25 1.22, 51.71 0.76, 54.16 0.46 C56.62 0.15, 59.11 0, 61.59 0 C64.06 0, 66.55 0.15, 69.01 0.46 C71.47 0.76, 73.92 1.22, 76.32 1.83 C78.73 2.44, 81.11 3.2, 83.43 4.09 C85.74 4.99, 88.02 6.04, 90.21 7.21 C92.4 8.39, 94.53 9.71, 96.57 11.15 C98.61 12.59, 100.57 14.16, 102.43 15.84 C104.28 17.52, 106.04 19.32, 107.68 21.22 C109.33 23.11, 110.87 25.12, 112.27 27.21 C113.68 29.29, 114.97 31.47, 116.12 33.71 C117.27 35.96, 118.29 38.28, 119.17 40.65 C120.05 43.02, 120.79 45.46, 121.38 47.91 C121.98 50.37, 122.43 52.88, 122.72 55.39 C123.02 57.91, 123.17 60.46, 123.17 62.99" stroke="none" stroke-width="0" fill="#ffffff"></path><path d="M123.17 62.99 C123.17 65.52, 123.02 68.07, 122.72 70.58 C122.43 73.09, 121.98 75.6, 121.38 78.06 C120.79 80.52, 120.05 82.95, 119.17 85.32 C118.29 87.69, 117.27 90.02, 116.12 92.26 C114.97 94.5, 113.68 96.68, 112.27 98.77 C110.87 100.85, 109.33 102.86, 107.68 104.75 C106.04 106.65, 104.28 108.45, 102.43 110.13 C100.57 111.81, 98.61 113.38, 96.57 114.82 C94.53 116.26, 92.4 117.58, 90.21 118.76 C88.02 119.93, 85.74 120.98, 83.43 121.88 C81.11 122.78, 78.73 123.54, 76.32 124.14 C73.92 124.75, 71.47 125.21, 69.01 125.51 C66.55 125.82, 64.06 125.97, 61.59 125.97 C59.11 125.97, 56.62 125.82, 54.16 125.51 C51.71 125.21, 49.25 124.75, 46.85 124.14 C44.45 123.54, 42.06 122.78, 39.75 121.88 C37.43 120.98, 35.16 119.93, 32.97 118.76 C30.77 117.58, 28.64 116.26, 26.6 114.82 C24.56 113.38, 22.6 111.81, 20.75 110.13 C18.89 108.45, 17.13 106.65, 15.49 104.75 C13.85 102.86, 12.31 100.85, 10.9 98.77 C9.5 96.68, 8.2 94.5, 7.05 92.26 C5.9 90.02, 4.88 87.69, 4 85.32 C3.12 82.95, 2.38 80.52, 1.79 78.06 C1.2 75.6, 0.75 73.09, 0.45 70.58 C0.15 68.07, 0 65.52, 0 62.99 C0 60.46, 0.15 57.91, 0.45 55.39 C0.75 52.88, 1.2 50.37, 1.79 47.91 C2.38 45.46, 3.12 43.02, 4 40.65 C4.88 38.28, 5.9 35.96, 7.05 33.71 C8.2 31.47, 9.5 29.29, 10.9 27.21 C12.31 25.12, 13.85 23.11, 15.49 21.22 C17.13 19.32, 18.89 17.52, 20.75 15.84 C22.6 14.16, 24.56 12.59, 26.6 11.15 C28.64 9.71, 30.77 8.39, 32.97 7.21 C35.16 6.04, 37.43 4.99, 39.75 4.09 C42.06 3.2, 44.45 2.44, 46.85 1.83 C49.25 1.22, 51.71 0.76, 54.16 0.46 C56.62 0.15, 59.11 0, 61.59 0 C64.06 0, 66.55 0.15, 69.01 0.46 C71.47 0.76, 73.92 1.22, 76.32 1.83 C78.73 2.44, 81.11 3.2, 83.43 4.09 C85.74 4.99, 88.02 6.04, 90.21 7.21 C92.4 8.39, 94.53 9.71, 96.57 11.15 C98.61 12.59, 100.57 14.16, 102.43 15.84 C104.28 17.52, 106.04 19.32, 107.68 21.22 C109.33 23.11, 110.87 25.12, 112.27 27.21 C113.68 29.29, 114.97 31.47, 116.12 33.71 C117.27 35.96, 118.29 38.28, 119.17 40.65 C120.05 43.02, 120.79 45.46, 121.38 47.91 C121.98 50.37, 122.43 52.88, 122.72 55.39 C123.02 57.91, 123.17 60.46, 123.17 62.99" stroke="#1e1e1e" stroke-width="2" fill="none"></path></g></g><g clip-path="url(#n9P_Fk3BXEJVUfAzu0v6N)"><g stroke-linecap="round" transform="translate(548.3308354930227 360.08787331321014) rotate(0 58.78699151761157 24.494575349510114)"><path d="M117.57 24.49 C117.57 25.66, 117.37 26.83, 116.98 27.98 C116.58 29.13, 115.98 30.28, 115.19 31.4 C114.41 32.51, 113.42 33.61, 112.26 34.67 C111.1 35.73, 109.75 36.76, 108.24 37.74 C106.73 38.71, 105.04 39.66, 103.22 40.54 C101.39 41.41, 99.39 42.25, 97.28 43.01 C95.18 43.77, 92.92 44.47, 90.57 45.1 C88.22 45.73, 85.74 46.29, 83.21 46.78 C80.67 47.26, 78.02 47.67, 75.35 48 C72.67 48.32, 69.91 48.57, 67.15 48.74 C64.39 48.91, 61.58 48.99, 58.79 48.99 C56 48.99, 53.18 48.91, 50.42 48.74 C47.66 48.57, 44.9 48.32, 42.22 48 C39.55 47.67, 36.9 47.26, 34.37 46.78 C31.83 46.29, 29.35 45.73, 27 45.1 C24.66 44.47, 22.4 43.77, 20.29 43.01 C18.18 42.25, 16.18 41.41, 14.36 40.54 C12.53 39.66, 10.84 38.71, 9.33 37.74 C7.82 36.76, 6.47 35.73, 5.31 34.67 C4.15 33.61, 3.17 32.51, 2.38 31.4 C1.6 30.28, 1 29.13, 0.6 27.98 C0.2 26.83, 0 25.66, 0 24.49 C0 23.33, 0.2 22.16, 0.6 21.01 C1 19.86, 1.6 18.71, 2.38 17.59 C3.17 16.48, 4.15 15.38, 5.31 14.32 C6.47 13.26, 7.82 12.23, 9.33 11.25 C10.84 10.27, 12.53 9.33, 14.36 8.45 C16.18 7.58, 18.18 6.74, 20.29 5.98 C22.4 5.22, 24.66 4.52, 27 3.89 C29.35 3.26, 31.83 2.7, 34.37 2.21 C36.9 1.73, 39.55 1.32, 42.22 0.99 C44.9 0.66, 47.66 0.41, 50.42 0.25 C53.18 0.08, 56 0, 58.79 0 C61.58 0, 64.39 0.08, 67.15 0.25 C69.91 0.41, 72.67 0.66, 75.35 0.99 C78.02 1.32, 80.67 1.73, 83.21 2.21 C85.74 2.7, 88.22 3.26, 90.57 3.89 C92.92 4.52, 95.18 5.22, 97.28 5.98 C99.39 6.74, 101.39 7.58, 103.22 8.45 C105.04 9.33, 106.73 10.27, 108.24 11.25 C109.75 12.23, 111.1 13.26, 112.26 14.32 C113.42 15.38, 114.41 16.48, 115.19 17.59 C115.98 18.71, 116.58 19.86, 116.98 21.01 C117.37 22.16, 117.47 23.91, 117.57 24.49 C117.67 25.08, 117.67 23.91, 117.57 24.49" stroke="none" stroke-width="0" fill="#ffffff"></path><path d="M117.57 24.49 C117.57 25.66, 117.37 26.83, 116.98 27.98 C116.58 29.13, 115.98 30.28, 115.19 31.4 C114.41 32.51, 113.42 33.61, 112.26 34.67 C111.1 35.73, 109.75 36.76, 108.24 37.74 C106.73 38.71, 105.04 39.66, 103.22 40.54 C101.39 41.41, 99.39 42.25, 97.28 43.01 C95.18 43.77, 92.92 44.47, 90.57 45.1 C88.22 45.73, 85.74 46.29, 83.21 46.78 C80.67 47.26, 78.02 47.67, 75.35 48 C72.67 48.32, 69.91 48.57, 67.15 48.74 C64.39 48.91, 61.58 48.99, 58.79 48.99 C56 48.99, 53.18 48.91, 50.42 48.74 C47.66 48.57, 44.9 48.32, 42.22 48 C39.55 47.67, 36.9 47.26, 34.37 46.78 C31.83 46.29, 29.35 45.73, 27 45.1 C24.66 44.47, 22.4 43.77, 20.29 43.01 C18.18 42.25, 16.18 41.41, 14.36 40.54 C12.53 39.66, 10.84 38.71, 9.33 37.74 C7.82 36.76, 6.47 35.73, 5.31 34.67 C4.15 33.61, 3.17 32.51, 2.38 31.4 C1.6 30.28, 1 29.13, 0.6 27.98 C0.2 26.83, 0 25.66, 0 24.49 C0 23.33, 0.2 22.16, 0.6 21.01 C1 19.86, 1.6 18.71, 2.38 17.59 C3.17 16.48, 4.15 15.38, 5.31 14.32 C6.47 13.26, 7.82 12.23, 9.33 11.25 C10.84 10.27, 12.53 9.33, 14.36 8.45 C16.18 7.58, 18.18 6.74, 20.29 5.98 C22.4 5.22, 24.66 4.52, 27 3.89 C29.35 3.26, 31.83 2.7, 34.37 2.21 C36.9 1.73, 39.55 1.32, 42.22 0.99 C44.9 0.66, 47.66 0.41, 50.42 0.25 C53.18 0.08, 56 0, 58.79 0 C61.58 0, 64.39 0.08, 67.15 0.25 C69.91 0.41, 72.67 0.66, 75.35 0.99 C78.02 1.32, 80.67 1.73, 83.21 2.21 C85.74 2.7, 88.22 3.26, 90.57 3.89 C92.92 4.52, 95.18 5.22, 97.28 5.98 C99.39 6.74, 101.39 7.58, 103.22 8.45 C105.04 9.33, 106.73 10.27, 108.24 11.25 C109.75 12.23, 111.1 13.26, 112.26 14.32 C113.42 15.38, 114.41 16.48, 115.19 17.59 C115.98 18.71, 116.58 19.86, 116.98 21.01 C117.37 22.16, 117.47 23.91, 117.57 24.49 C117.67 25.08, 117.67 23.91, 117.57 24.49" stroke="#1e1e1e" stroke-width="2" fill="none"></path></g></g><g clip-path="url(#n9P_Fk3BXEJVUfAzu0v6N)"><g transform="translate(579.4827404129751 375.5621683307968) rotate(0 27.56640625 9.200000000000045)"><text x="27.56640625" y="0" font-family="Helvetica, Segoe UI Emoji" font-size="16px" fill="#1e1e1e" text-anchor="middle" style="white-space: pre;" direction="ltr" dominant-baseline="text-before-edge">Relayer</text></g></g><g clip-path="url(#n9P_Fk3BXEJVUfAzu0v6N)"><g stroke-linecap="round" transform="translate(549.7304507614829 465.7645125362458) rotate(0 58.78699151761157 24.494575349510114)"><path d="M117.57 24.49 C117.57 25.66, 117.37 26.83, 116.98 27.98 C116.58 29.13, 115.98 30.28, 115.19 31.4 C114.41 32.51, 113.42 33.61, 112.26 34.67 C111.1 35.73, 109.75 36.76, 108.24 37.74 C106.73 38.71, 105.04 39.66, 103.22 40.54 C101.39 41.41, 99.39 42.25, 97.28 43.01 C95.18 43.77, 92.92 44.47, 90.57 45.1 C88.22 45.73, 85.74 46.29, 83.21 46.78 C80.67 47.26, 78.02 47.67, 75.35 48 C72.67 48.32, 69.91 48.57, 67.15 48.74 C64.39 48.91, 61.58 48.99, 58.79 48.99 C56 48.99, 53.18 48.91, 50.42 48.74 C47.66 48.57, 44.9 48.32, 42.22 48 C39.55 47.67, 36.9 47.26, 34.37 46.78 C31.83 46.29, 29.35 45.73, 27 45.1 C24.66 44.47, 22.4 43.77, 20.29 43.01 C18.18 42.25, 16.18 41.41, 14.36 40.54 C12.53 39.66, 10.84 38.71, 9.33 37.74 C7.82 36.76, 6.47 35.73, 5.31 34.67 C4.15 33.61, 3.17 32.51, 2.38 31.4 C1.6 30.28, 1 29.13, 0.6 27.98 C0.2 26.83, 0 25.66, 0 24.49 C0 23.33, 0.2 22.16, 0.6 21.01 C1 19.86, 1.6 18.71, 2.38 17.59 C3.17 16.48, 4.15 15.38, 5.31 14.32 C6.47 13.26, 7.82 12.23, 9.33 11.25 C10.84 10.27, 12.53 9.33, 14.36 8.45 C16.18 7.58, 18.18 6.74, 20.29 5.98 C22.4 5.22, 24.66 4.52, 27 3.89 C29.35 3.26, 31.83 2.7, 34.37 2.21 C36.9 1.73, 39.55 1.32, 42.22 0.99 C44.9 0.66, 47.66 0.41, 50.42 0.25 C53.18 0.08, 56 0, 58.79 0 C61.58 0, 64.39 0.08, 67.15 0.25 C69.91 0.41, 72.67 0.66, 75.35 0.99 C78.02 1.32, 80.67 1.73, 83.21 2.21 C85.74 2.7, 88.22 3.26, 90.57 3.89 C92.92 4.52, 95.18 5.22, 97.28 5.98 C99.39 6.74, 101.39 7.58, 103.22 8.45 C105.04 9.33, 106.73 10.27, 108.24 11.25 C109.75 12.23, 111.1 13.26, 112.26 14.32 C113.42 15.38, 114.41 16.48, 115.19 17.59 C115.98 18.71, 116.58 19.86, 116.98 21.01 C117.37 22.16, 117.47 23.91, 117.57 24.49 C117.67 25.08, 117.67 23.91, 117.57 24.49" stroke="none" stroke-width="0" fill="#ffffff"></path><path d="M117.57 24.49 C117.57 25.66, 117.37 26.83, 116.98 27.98 C116.58 29.13, 115.98 30.28, 115.19 31.4 C114.41 32.51, 113.42 33.61, 112.26 34.67 C111.1 35.73, 109.75 36.76, 108.24 37.74 C106.73 38.71, 105.04 39.66, 103.22 40.54 C101.39 41.41, 99.39 42.25, 97.28 43.01 C95.18 43.77, 92.92 44.47, 90.57 45.1 C88.22 45.73, 85.74 46.29, 83.21 46.78 C80.67 47.26, 78.02 47.67, 75.35 48 C72.67 48.32, 69.91 48.57, 67.15 48.74 C64.39 48.91, 61.58 48.99, 58.79 48.99 C56 48.99, 53.18 48.91, 50.42 48.74 C47.66 48.57, 44.9 48.32, 42.22 48 C39.55 47.67, 36.9 47.26, 34.37 46.78 C31.83 46.29, 29.35 45.73, 27 45.1 C24.66 44.47, 22.4 43.77, 20.29 43.01 C18.18 42.25, 16.18 41.41, 14.36 40.54 C12.53 39.66, 10.84 38.71, 9.33 37.74 C7.82 36.76, 6.47 35.73, 5.31 34.67 C4.15 33.61, 3.17 32.51, 2.38 31.4 C1.6 30.28, 1 29.13, 0.6 27.98 C0.2 26.83, 0 25.66, 0 24.49 C0 23.33, 0.2 22.16, 0.6 21.01 C1 19.86, 1.6 18.71, 2.38 17.59 C3.17 16.48, 4.15 15.38, 5.31 14.32 C6.47 13.26, 7.82 12.23, 9.33 11.25 C10.84 10.27, 12.53 9.33, 14.36 8.45 C16.18 7.58, 18.18 6.74, 20.29 5.98 C22.4 5.22, 24.66 4.52, 27 3.89 C29.35 3.26, 31.83 2.7, 34.37 2.21 C36.9 1.73, 39.55 1.32, 42.22 0.99 C44.9 0.66, 47.66 0.41, 50.42 0.25 C53.18 0.08, 56 0, 58.79 0 C61.58 0, 64.39 0.08, 67.15 0.25 C69.91 0.41, 72.67 0.66, 75.35 0.99 C78.02 1.32, 80.67 1.73, 83.21 2.21 C85.74 2.7, 88.22 3.26, 90.57 3.89 C92.92 4.52, 95.18 5.22, 97.28 5.98 C99.39 6.74, 101.39 7.58, 103.22 8.45 C105.04 9.33, 106.73 10.27, 108.24 11.25 C109.75 12.23, 111.1 13.26, 112.26 14.32 C113.42 15.38, 114.41 16.48, 115.19 17.59 C115.98 18.71, 116.58 19.86, 116.98 21.01 C117.37 22.16, 117.47 23.91, 117.57 24.49 C117.67 25.08, 117.67 23.91, 117.57 24.49" stroke="#1e1e1e" stroke-width="2" fill="none"></path></g></g><g clip-path="url(#n9P_Fk3BXEJVUfAzu0v6N)"><g transform="translate(584.8862619314352 481.23880755383243) rotate(0 23.5625 9.200000000000045)"><text x="23.5625" y="0" font-family="Helvetica, Segoe UI Emoji" font-size="16px" fill="#1e1e1e" text-anchor="middle" style="white-space: pre;" direction="ltr" dominant-baseline="text-before-edge">Oracle</text></g></g><g clip-path="url(#n9P_Fk3BXEJVUfAzu0v6N)"><g transform="translate(560.0774269668333 247.26123134667887) rotate(0 45.576171875 11.5)"><text x="0" y="0" font-family="Helvetica, Segoe UI Emoji" font-size="20px" fill="#ffffff" text-anchor="start" style="white-space: pre;" direction="ltr" dominant-baseline="text-before-edge">LayerZero</text></g></g></svg>